<?xml version="1.0" encoding="iso-8859-1"?>
<!-- Uploaded to: SVG Repo, www.svgrepo.com, Generator: SVG Repo Mixer Tools -->
<svg height="800px" width="800px" version="1.1" id="Layer_1" xmlns="http://www.w3.org/2000/svg" xmlns:xlink="http://www.w3.org/1999/xlink" 
	 viewBox="0 0 512 512" xml:space="preserve">
<path style="fill:#FFAA7C;" d="M462.897,495.126L199.458,231.688l32.229-32.229l263.439,263.439c8.9,8.9,8.9,23.33,0,32.229l0,0
	C486.226,504.027,471.797,504.027,462.897,495.126z"/>
<path style="fill:#8ECAC1;" d="M130.445,199.107l32.93,32.93c9.868,9.868,25.865,9.868,35.733,0l32.93-32.93
	c9.868-9.868,9.868-25.865,0-35.733l-32.93-32.93c-9.868-9.868-25.865-9.868-35.733,0l-32.93,32.93
	C120.578,173.242,120.578,189.241,130.445,199.107z"/>
<g>
	<path style="fill:#4D3D36;" d="M502.337,455.685L245.158,198.506c2.918-5.219,4.478-11.12,4.478-17.264
		c0-9.474-3.689-18.38-10.388-25.078l-32.929-32.93c-13.828-13.827-36.328-13.829-50.158,0l-32.929,32.929
		c-6.698,6.699-10.388,15.605-10.388,25.079c0,9.473,3.689,18.38,10.388,25.078l32.929,32.93
		c6.914,6.914,15.996,10.371,25.079,10.371c5.956,0,11.909-1.497,17.254-4.471l257.189,257.189
		c6.231,6.231,14.516,9.662,23.327,9.662c8.812,0,17.096-3.431,23.327-9.662c6.231-6.231,9.663-14.514,9.663-23.327
		C512,470.2,508.569,461.916,502.337,455.685z M170.587,224.826l-32.929-32.93l0,0c-2.847-2.846-4.413-6.629-4.413-10.654
		c0-4.025,1.567-7.809,4.413-10.655l32.929-32.929c2.937-2.937,6.796-4.406,10.654-4.406c3.858,0,7.717,1.469,10.654,4.406
		l32.929,32.93c2.847,2.846,4.413,6.629,4.413,10.654c0,4.025-1.567,7.809-4.413,10.654l-32.929,32.929
		C186.021,230.701,176.462,230.699,170.587,224.826z M487.914,487.915c-2.377,2.378-5.539,3.687-8.903,3.687
		c-3.363,0-6.524-1.31-8.903-3.688L213.881,231.688l17.805-17.805l256.226,256.226c2.378,2.378,3.688,5.54,3.688,8.903
		C491.602,482.375,490.292,485.537,487.914,487.915z"/>
	<path style="fill:#4D3D36;" d="M263.695,180.746c0,5.633,4.567,10.199,10.199,10.199h77.397c5.632,0,10.199-4.566,10.199-10.199
		s-4.567-10.199-10.199-10.199h-77.397C268.262,170.546,263.695,175.113,263.695,180.746z"/>
	<path style="fill:#4D3D36;" d="M255.012,116.677c2.611,0,5.22-0.995,7.212-2.987l60.368-60.368c3.983-3.983,3.983-10.441,0-14.425
		c-3.984-3.983-10.44-3.983-14.425,0L247.8,99.266c-3.983,3.983-3.983,10.441,0,14.425
		C249.792,115.682,252.402,116.677,255.012,116.677z"/>
	<path style="fill:#4D3D36;" d="M180.745,23.459c5.632,0,10.199-4.566,10.199-10.199V10.2c0-5.633-4.567-10.199-10.199-10.199
		S170.546,4.567,170.546,10.2v3.06C170.546,18.892,175.112,23.459,180.745,23.459z"/>
	<path style="fill:#4D3D36;" d="M180.745,97.796c5.632,0,10.199-4.566,10.199-10.199V45.897c0-5.633-4.567-10.199-10.199-10.199
		s-10.199,4.566-10.199,10.199v41.699C170.546,93.229,175.112,97.796,180.745,97.796z"/>
	<path style="fill:#4D3D36;" d="M99.061,113.486c1.992,1.992,4.602,2.987,7.212,2.987c2.61,0,5.22-0.995,7.212-2.987
		c3.983-3.983,3.983-10.441,0-14.425L53.116,38.693c-3.984-3.983-10.44-3.983-14.425,0c-3.983,3.983-3.983,10.441,0,14.425
		L99.061,113.486z"/>
	<path style="fill:#4D3D36;" d="M97.795,180.746c0-5.633-4.567-10.199-10.199-10.199H10.199C4.567,170.546,0,175.113,0,180.746
		s4.567,10.199,10.199,10.199h77.397C93.228,190.945,97.795,186.379,97.795,180.746z"/>
	<path style="fill:#4D3D36;" d="M40.723,306.343l-1.827,1.828c-3.982,3.984-3.981,10.442,0.002,14.425
		c1.992,1.991,4.602,2.986,7.211,2.986c2.611,0,5.221-0.996,7.213-2.988l1.827-1.828c3.982-3.984,3.981-10.442-0.002-14.425
		C51.163,302.36,44.707,302.36,40.723,306.343z"/>
	<path style="fill:#4D3D36;" d="M99.312,247.754l-34.062,33.625c-4.009,3.957-4.05,10.414-0.093,14.424
		c1.995,2.021,4.625,3.034,7.258,3.034c2.589,0,5.178-0.979,7.165-2.94l34.062-33.625c4.009-3.957,4.05-10.414,0.093-14.424
		C109.777,243.839,103.319,243.798,99.312,247.754z"/>
	<path style="fill:#4D3D36;" d="M180.745,263.696c-5.632,0-10.199,4.566-10.199,10.199v77.397c0,5.633,4.567,10.199,10.199,10.199
		s10.199-4.566,10.199-10.199v-77.397C190.944,268.262,186.377,263.696,180.745,263.696z"/>
</g>
</svg>